<?xml version="1.0" standalone="no"?>
<!DOCTYPE svg PUBLIC "-//W3C//DTD SVG 20010904//EN"
 "http://www.w3.org/TR/2001/REC-SVG-20010904/DTD/svg10.dtd">
<svg version="1.0" xmlns="http://www.w3.org/2000/svg"
 width="351.000000pt" height="351.000000pt" viewBox="0 0 351.000000 351.000000"
 preserveAspectRatio="xMidYMid meet">
<metadata>
Created by potrace 1.11, written by Peter Selinger 2001-2013
</metadata>
<g transform="translate(0.000000,351.000000) scale(0.100000,-0.100000)"
fill="#000000" stroke="none">
<path d="M677 2972 c-14 -16 -17 -43 -17 -164 0 -128 2 -147 18 -161 10 -10
28 -17 40 -17 l22 0 0 -430 0 -430 -118 0 c-159 0 -153 8 -150 -186 l3 -149
32 -15 33 -15 0 -437 c-1 -300 3 -444 10 -458 6 -12 22 -25 36 -30 16 -6 464
-10 1155 -10 1139 0 1159 1 1181 34 4 6 8 210 8 454 l0 442 23 9 c47 18 52 35
52 187 0 184 7 177 -154 175 l-121 -2 0 431 0 430 23 0 c13 0 32 9 43 21 17
19 19 38 19 165 0 131 -2 144 -20 158 -18 14 -148 15 -1061 16 -996 0 -1042
-1 -1057 -18z"/>
</g>
</svg>
